<?xml version="1.0" encoding="utf-8"?>
<!-- Generator: Adobe Illustrator 28.7.3, SVG Export Plug-In . SVG Version: 9.03 Build 54978)  -->
<svg version="1.1" id="Lager_1" xmlns="http://www.w3.org/2000/svg" xmlns:xlink="http://www.w3.org/1999/xlink" x="0px" y="0px"
	 viewBox="0 0 600 600" style="enable-background:new 0 0 600 600;" xml:space="preserve">
<style type="text/css">
	.st0{fill:#D40033;}
	.st1{fill:#FFFFFF;}
	.st2{fill:#FFFFFF;stroke:#FFFFFF;stroke-width:5;stroke-miterlimit:10;}
	.st3{fill:#9E0D22;}
</style>
<g>
	<circle class="st0" cx="300" cy="300" r="295"/>
</g>
<g>
	<ellipse class="st1" cx="300" cy="290.1" rx="295" ry="57.42"/>
</g>
<path class="st2" d="M396.02,265.35"/>
<path class="st2" d="M437.6,120.82"/>
<g>
	<ellipse class="st3" cx="299.01" cy="299.01" rx="266.29" ry="48.51"/>
</g>
<path class="st1" d="M292.08,296.04c-4.65,7.66-154.56-48.25-158.39-124.73c-0.32-6.42-1.03-20.61,7.92-31.68
	c24.12-29.84,92.45-4.98,97.01-17.82c4.46-12.54-60.67-36.3-57.42-59.4c3.3-23.4,74.77-31.44,75.23-29.7
	c0.41,1.51-52.93,8.27-55.44,27.72c-3.51,27.31,96.66,52.46,93.05,75.23c-3.64,22.97-107.4,8.92-118.79,41.58
	C161.44,216.9,296.67,288.49,292.08,296.04z"/>
<path class="st1" d="M417.23,290.18c-4.65,5.3-154.56-33.36-158.39-86.24c-0.32-4.44-1.03-14.25,7.92-21.9
	c24.12-20.63,92.45-3.44,97.01-12.32c4.46-8.67-60.67-25.1-57.42-41.07c3.3-16.18,74.77-21.74,75.23-20.53
	c0.41,1.04-52.93,5.72-55.44,19.16c-3.51,18.88,96.66,36.28,93.05,52.02c-3.64,15.88-107.4,6.17-118.79,28.75
	C286.6,235.45,421.82,284.95,417.23,290.18z"/>
<g>
	<g>
		<path class="st3" d="M315.29,400.07h-26.91c-5.65,0-10.27-4.62-10.27-10.27v-20.13c0-5.65,4.62-10.27,10.27-10.27h26.91
			c5.65,0,10.27,4.62,10.27,10.27v20.13C325.56,395.45,320.94,400.07,315.29,400.07z"/>
	</g>
	<g>
		<path class="st3" d="M301.63,378.89c-47.61,0-86.22,38.61-86.22,86.22s38.61,86.22,86.22,86.22s86.22-38.61,86.22-86.22
			S349.24,378.89,301.63,378.89z M301.63,526.78c-34.06,0-61.67-27.61-61.67-61.67s27.61-61.67,61.67-61.67s61.67,27.61,61.67,61.67
			S335.68,526.78,301.63,526.78z"/>
	</g>
	<g>
		<path class="st3" d="M315.29,571.24h-26.91c-5.65,0-10.27-4.62-10.27-10.27v-20.13c0-5.65,4.62-10.27,10.27-10.27h26.91
			c5.65,0,10.27,4.62,10.27,10.27v20.13C325.56,566.62,320.94,571.24,315.29,571.24z"/>
	</g>
	<g>
		<path class="st3" d="M235.74,451.02v26.91c0,5.65-4.62,10.27-10.27,10.27h-20.13c-5.65,0-10.27-4.62-10.27-10.27v-26.91
			c0-5.65,4.62-10.27,10.27-10.27h20.13C231.12,440.74,235.74,445.37,235.74,451.02z"/>
	</g>
	<g>
		<path class="st3" d="M406.91,451.02v26.91c0,5.65-4.62,10.27-10.27,10.27h-20.13c-5.65,0-10.27-4.62-10.27-10.27v-26.91
			c0-5.65,4.62-10.27,10.27-10.27h20.13C402.29,440.74,406.91,445.37,406.91,451.02z"/>
	</g>
	<g>
		<path class="st3" d="M364.94,379.44l19.03,19.03c3.99,3.99,3.99,10.53,0,14.53l-14.23,14.23c-3.99,3.99-10.53,3.99-14.53,0
			l-19.03-19.03c-3.99-3.99-3.99-10.53,0-14.53l14.23-14.23C354.41,375.44,360.95,375.44,364.94,379.44z"/>
	</g>
	<g>
		<path class="st3" d="M244.61,503.15l19.03,19.03c3.99,3.99,3.99,10.53,0,14.53l-14.23,14.23c-3.99,3.99-10.53,3.99-14.53,0
			l-19.03-19.03c-3.99-3.99-3.99-10.53,0-14.53l14.23-14.23C234.08,499.16,240.62,499.16,244.61,503.15z"/>
	</g>
	<g>
		<path class="st3" d="M215.85,395.07l19.03-19.03c3.99-3.99,10.53-3.99,14.53,0l14.23,14.23c3.99,3.99,3.99,10.53,0,14.53
			l-19.03,19.03c-3.99,3.99-10.53,3.99-14.53,0l-14.23-14.23C211.86,405.61,211.86,399.07,215.85,395.07z"/>
	</g>
	<g>
		<path class="st3" d="M341.26,520.49l19.03-19.03c3.99-3.99,10.53-3.99,14.53,0l14.23,14.23c3.99,3.99,3.99,10.53,0,14.53
			l-19.03,19.03c-3.99,3.99-10.53,3.99-14.53,0l-14.23-14.23C337.27,531.02,337.27,524.48,341.26,520.49z"/>
	</g>
</g>
<circle class="st1" cx="302.97" cy="465.32" r="44.55"/>
</svg>
